<svg width="228" height="161" viewBox="0 0 228 161" fill="none" xmlns="http://www.w3.org/2000/svg">
<g filter="url(#filter0_di_3014_10)">
<path d="M117.924 70.6938C117.924 59.7542 126.825 50.8853 137.805 50.8853C148.785 50.8853 157.687 59.7542 157.687 70.6938C157.687 77.0012 154.728 82.6201 150.118 86.2477C146.731 88.9119 144.987 85.6813 135.124 85.6813C125.262 85.6813 128.879 88.9119 125.493 86.2477C120.883 82.6201 117.924 77.0012 117.924 70.6938Z" fill="#FFFFFE"/>
<path d="M70.3262 70.6938C70.3262 59.7542 79.2272 50.8853 90.2073 50.8853C101.187 50.8853 110.089 59.7542 110.089 70.6938C110.089 77.0012 107.13 82.6201 102.52 86.2477C99.1336 88.9119 103.019 85.6813 92.7477 85.6813C82.4768 85.6813 81.2813 88.9119 77.8954 86.2477C73.2851 82.6201 70.3262 77.0012 70.3262 70.6938Z" fill="#FFFFFE"/>
<path fill-rule="evenodd" clip-rule="evenodd" d="M56.0621 40.7889C56.1891 39.6444 56.221 38.3796 56.1898 37.0348C56.1656 35.9887 56.0178 33.7703 56.0178 33.7703L55.7841 31.1075C55.7841 31.1075 55.6465 29.7389 55.5579 28.862C55.4415 27.7107 55.2589 25.914 55.2589 25.914C55.2589 25.914 55.1264 24.5124 55.0697 23.8232C54.9645 22.5461 54.8519 20.1133 54.8519 20.1133C54.8519 20.1133 54.7309 17.5547 54.9949 15.9488C55.2402 14.457 55.2182 13.4786 56.0738 12.2301C56.6444 11.3975 57.0443 10.9006 57.9486 10.448C58.975 9.9343 59.6911 9.94568 60.866 10.0751C62.6048 10.2666 66.9996 12.2301 66.9996 12.2301L69.0908 13.4061C69.0908 13.4061 70.616 14.3523 71.3949 14.8785C72.1302 15.3752 72.8736 15.9021 73.6206 16.4553C74.7422 17.2859 76.995 19.112 76.995 19.112L78.4411 20.3463L80.5144 22.219L83.6368 25.2882L85.2867 27.0491C85.2867 27.0491 86.0905 27.9387 86.5902 28.5221C89.0231 31.3625 90.775 33.7592 92.2273 36.2606H129.315C129.98 35.1841 130.825 34.0797 131.818 32.9656C132.703 31.9722 134.8 29.9756 134.8 29.9756C134.8 29.9756 136.745 28.2719 137.805 27.4343C139.84 25.8257 144.387 22.8012 144.387 22.8012C144.387 22.8012 145.368 22.1902 145.863 21.892C146.46 21.532 147.667 20.8354 147.667 20.8354C147.667 20.8354 150.249 19.4094 151.54 18.7627C152.551 18.2558 154.554 17.3337 154.554 17.3337C154.554 17.3337 156.116 16.6541 156.881 16.3478C157.67 16.0319 158.447 15.7405 159.207 15.4759C160.763 14.9345 163.627 14.2083 163.627 14.2083C163.627 14.2083 164.26 14.0778 164.567 14.0235C165.154 13.9198 166.256 13.7948 166.256 13.7948C166.256 13.7948 167.941 13.7136 168.665 13.7948C172.038 14.1728 173.203 16.3197 173.176 19.4185C173.172 19.8713 173.092 20.8354 173.092 20.8354C173.092 20.8354 172.953 21.9265 172.848 22.5004C172.691 23.3585 172.241 25.1831 172.241 25.1831C172.241 25.1831 171.769 26.8926 171.498 27.7747C171.183 28.8031 170.488 30.91 170.488 30.91L169.282 34.4953C169.282 34.4953 168.888 35.6784 168.697 36.2644C168.413 37.1408 167.889 38.8559 167.889 38.8559C167.889 38.8559 167.7 39.5037 167.611 39.8232C167.441 40.4318 167.145 41.6129 167.145 41.6129L166.561 44.8085C166.419 45.6489 166.339 46.1202 166.196 46.9606L165.789 48.4668C165.789 48.4668 165.522 49.2726 165.369 49.6658C165.12 50.3088 164.525 51.5398 164.525 51.5398C164.525 51.5398 164.34 51.8935 164.215 52.1168C164.001 52.4987 163.64 53.0785 163.64 53.0785C163.64 53.0785 163.165 53.7957 162.911 54.1409C163.132 54.8121 163.495 56.1901 163.495 56.1901L163.713 57.1815C163.713 57.1815 163.828 57.7866 163.878 58.0918C163.917 58.3319 163.953 58.5733 163.985 58.816C164.039 59.2177 164.118 60.0302 164.118 60.0302C164.118 60.0302 164.179 60.8353 164.195 61.2418C164.208 61.5858 164.215 61.931 164.215 62.2785V87.2379C164.215 87.2379 164.365 106.181 114.776 106.181C65.1858 106.181 63.0196 87.2379 63.0196 87.2379C63.0196 87.2379 63.0196 84.4181 63.0196 82.6112C63.0196 81.5573 63.0196 80.966 63.0196 79.9121C63.0196 78.9621 62.8665 78.4168 63.0196 77.4793C63.1018 76.9759 63.2531 76.7155 63.3409 76.2129C63.6269 74.5759 63.0196 71.9703 63.0196 71.9703V62.2785C63.0196 60.8884 63.1302 59.5237 63.3409 58.1927C62.5776 57.5879 61.8621 56.928 61.2 56.2203C60.7088 55.6953 60.2553 55.1897 59.7865 54.6448C59.3175 53.9448 58.8525 53.1892 58.4389 52.4552C58.2538 52.1267 58.078 51.7927 57.9119 51.4535C57.7399 51.102 57.9966 51.6243 57.4273 50.3825C56.858 49.1408 56.6728 48.2188 56.6728 48.2188C56.6728 48.2188 56.3554 46.9835 56.2424 46.3508C56.1225 45.6795 55.9893 44.3074 55.9893 44.3074C55.9893 44.3074 55.9301 41.9783 56.0621 40.7889ZM90.2077 50.8854C79.2276 50.8855 70.3266 59.7543 70.3266 70.694C70.3266 77.0013 73.2855 82.6203 77.8958 86.2479C81.2817 88.9121 82.4772 85.6815 92.7481 85.6815C103.019 85.6815 99.134 88.9121 102.52 86.2479C107.13 82.6203 110.089 77.0013 110.089 70.694C110.089 59.7543 101.188 50.8854 90.2077 50.8854ZM137.805 50.8854C126.825 50.8855 117.923 59.7543 117.923 70.694C117.923 77.0013 120.882 82.6203 125.493 86.2479C128.879 88.9121 125.261 85.6815 135.124 85.6815C144.986 85.6815 146.731 88.9121 150.117 86.2479C154.727 82.6203 157.686 77.0013 157.686 70.694C157.686 59.7543 148.785 50.8854 137.805 50.8854Z" fill="#49C9D5"/>
<path d="M106.171 71.9703C106.171 77.7177 101.495 82.3772 95.7258 82.3772C89.9569 82.3772 85.2803 77.7177 85.2803 71.9703C85.2803 66.2225 89.9569 61.563 95.7258 61.563C101.495 61.563 106.171 66.2225 106.171 71.9703Z" fill="#49C9D5"/>
<path d="M142.731 71.9703C142.731 77.7177 138.054 82.3772 132.286 82.3772C126.517 82.3772 121.84 77.7177 121.84 71.9703C121.84 66.2225 126.517 61.563 132.286 61.563C138.054 61.563 142.731 66.2225 142.731 71.9703Z" fill="#49C9D5"/>
<path d="M106.171 71.9703C106.171 77.7177 101.495 82.3772 95.7258 82.3772C89.9569 82.3772 85.2803 77.7177 85.2803 71.9703C85.2803 66.2225 89.9569 61.563 95.7258 61.563C101.495 61.563 106.171 66.2225 106.171 71.9703Z" fill="#3797A0"/>
<path d="M142.731 71.9703C142.731 77.7177 138.054 82.3772 132.286 82.3772C126.517 82.3772 121.84 77.7177 121.84 71.9703C121.84 66.2225 126.517 61.563 132.286 61.563C138.054 61.563 142.731 66.2225 142.731 71.9703Z" fill="#3797A0"/>
<path fill-rule="evenodd" clip-rule="evenodd" d="M56.0621 40.7889C56.1891 39.6444 56.221 38.3796 56.1898 37.0348C56.1656 35.9887 56.0178 33.7703 56.0178 33.7703L55.7841 31.1075C55.7841 31.1075 55.6465 29.7389 55.5579 28.862C55.4415 27.7107 55.2589 25.914 55.2589 25.914C55.2589 25.914 55.1264 24.5124 55.0697 23.8232C54.9645 22.5461 54.8519 20.1133 54.8519 20.1133C54.8519 20.1133 54.7309 17.5547 54.9949 15.9488C55.2402 14.457 55.2182 13.4786 56.0738 12.2301C56.6444 11.3975 57.0443 10.9006 57.9486 10.448C58.975 9.9343 59.6911 9.94568 60.866 10.0751C62.6048 10.2666 66.9996 12.2301 66.9996 12.2301L69.0908 13.4061C69.0908 13.4061 70.616 14.3523 71.3949 14.8785C72.1302 15.3752 72.8736 15.9021 73.6206 16.4553C74.7422 17.2859 76.995 19.112 76.995 19.112L78.4411 20.3463L80.5144 22.219L83.6368 25.2882L85.2867 27.0491C85.2867 27.0491 86.0905 27.9387 86.5902 28.5221C89.0231 31.3625 90.775 33.7592 92.2273 36.2606H129.315C129.98 35.1841 130.825 34.0797 131.818 32.9656C132.703 31.9722 134.8 29.9756 134.8 29.9756C134.8 29.9756 136.745 28.2719 137.805 27.4343C139.84 25.8257 144.387 22.8012 144.387 22.8012C144.387 22.8012 145.368 22.1902 145.863 21.892C146.46 21.532 147.667 20.8354 147.667 20.8354C147.667 20.8354 150.249 19.4094 151.54 18.7627C152.551 18.2558 154.554 17.3337 154.554 17.3337C154.554 17.3337 156.116 16.6541 156.881 16.3478C157.67 16.0319 158.447 15.7405 159.207 15.4759C160.763 14.9345 163.627 14.2083 163.627 14.2083C163.627 14.2083 164.26 14.0778 164.567 14.0235C165.154 13.9198 166.256 13.7948 166.256 13.7948C166.256 13.7948 167.941 13.7136 168.665 13.7948C172.038 14.1728 173.203 16.3197 173.176 19.4185C173.172 19.8713 173.092 20.8354 173.092 20.8354C173.092 20.8354 172.953 21.9265 172.848 22.5004C172.691 23.3585 172.241 25.1831 172.241 25.1831C172.241 25.1831 171.769 26.8926 171.498 27.7747C171.183 28.8031 170.488 30.91 170.488 30.91L169.282 34.4953C169.282 34.4953 168.888 35.6784 168.697 36.2644C168.413 37.1408 167.889 38.8559 167.889 38.8559C167.889 38.8559 167.7 39.5037 167.611 39.8232C167.441 40.4318 167.145 41.6129 167.145 41.6129L166.561 44.8085C166.419 45.6489 166.339 46.1202 166.196 46.9606L165.789 48.4668C165.789 48.4668 165.522 49.2726 165.369 49.6658C165.12 50.3088 164.525 51.5398 164.525 51.5398C164.525 51.5398 164.34 51.8935 164.215 52.1168C164.001 52.4987 163.64 53.0785 163.64 53.0785C163.64 53.0785 163.165 53.7957 162.911 54.1409C163.132 54.8121 163.495 56.1901 163.495 56.1901L163.713 57.1815C163.713 57.1815 163.828 57.7866 163.878 58.0918C163.917 58.3319 163.953 58.5733 163.985 58.816C164.039 59.2177 164.118 60.0302 164.118 60.0302C164.118 60.0302 164.179 60.8353 164.195 61.2418C164.208 61.5858 164.215 61.931 164.215 62.2785V87.2379C164.215 87.2379 164.365 106.181 114.776 106.181C65.1858 106.181 63.0196 87.2379 63.0196 87.2379C63.0196 87.2379 63.0196 84.4181 63.0196 82.6112C63.0196 81.5573 63.0196 80.966 63.0196 79.9121C63.0196 78.9621 62.8665 78.4168 63.0196 77.4793C63.1018 76.9759 63.2531 76.7155 63.3409 76.2129C63.6269 74.5759 63.0196 71.9703 63.0196 71.9703V62.2785C63.0196 60.8884 63.1302 59.5237 63.3409 58.1927C62.5776 57.5879 61.8621 56.928 61.2 56.2203C60.7088 55.6953 60.2553 55.1897 59.7865 54.6448C59.3175 53.9448 58.8525 53.1892 58.4389 52.4552C58.2538 52.1267 58.078 51.7927 57.9119 51.4535C57.7399 51.102 57.9966 51.6243 57.4273 50.3825C56.858 49.1408 56.6728 48.2188 56.6728 48.2188C56.6728 48.2188 56.3554 46.9835 56.2424 46.3508C56.1225 45.6795 55.9893 44.3074 55.9893 44.3074C55.9893 44.3074 55.9301 41.9783 56.0621 40.7889ZM90.2077 50.8854C79.2276 50.8855 70.3266 59.7543 70.3266 70.694C70.3266 77.0013 73.2855 82.6203 77.8958 86.2479C81.2817 88.9121 82.4772 85.6815 92.7481 85.6815C103.019 85.6815 99.134 88.9121 102.52 86.2479C107.13 82.6203 110.089 77.0013 110.089 70.694C110.089 59.7543 101.188 50.8854 90.2077 50.8854ZM137.805 50.8854C126.825 50.8855 117.923 59.7543 117.923 70.694C117.923 77.0013 120.882 82.6203 125.493 86.2479C128.879 88.9121 125.261 85.6815 135.124 85.6815C144.986 85.6815 146.731 88.9121 150.117 86.2479C154.727 82.6203 157.686 77.0013 157.686 70.694C157.686 59.7543 148.785 50.8854 137.805 50.8854Z" fill="url(#paint0_radial_3014_10)"/>
<path d="M106.171 71.9703C106.171 77.7177 101.495 82.3772 95.7258 82.3772C89.9569 82.3772 85.2803 77.7177 85.2803 71.9703C85.2803 66.2225 89.9569 61.563 95.7258 61.563C101.495 61.563 106.171 66.2225 106.171 71.9703Z" fill="url(#paint1_radial_3014_10)"/>
<path d="M142.731 71.9703C142.731 77.7177 138.054 82.3772 132.286 82.3772C126.517 82.3772 121.84 77.7177 121.84 71.9703C121.84 66.2225 126.517 61.563 132.286 61.563C138.054 61.563 142.731 66.2225 142.731 71.9703Z" fill="url(#paint2_radial_3014_10)"/>
<path d="M117.923 70.694C117.923 59.7543 126.825 50.8855 137.805 50.8854C148.785 50.8854 157.686 59.7543 157.686 70.694C157.686 77.0013 154.727 82.6203 150.117 86.2479C146.731 88.9121 144.986 85.6815 135.124 85.6815C125.261 85.6815 128.879 88.9121 125.493 86.2479C120.882 82.6203 117.923 77.0013 117.923 70.694ZM70.3266 70.694C70.3266 59.7543 79.2276 50.8855 90.2077 50.8854C101.188 50.8854 110.089 59.7543 110.089 70.694C110.089 77.0013 107.13 82.6203 102.52 86.2479C99.134 88.9121 103.019 85.6815 92.7481 85.6815C82.4772 85.6815 81.2817 88.9121 77.8958 86.2479C73.2855 82.6203 70.3266 77.0013 70.3266 70.694ZM56.0621 40.7889C56.1891 39.6444 56.221 38.3796 56.1898 37.0348C56.1656 35.9887 56.0178 33.7703 56.0178 33.7703L55.7841 31.1075C55.7841 31.1075 55.6465 29.7389 55.5579 28.862C55.4415 27.7107 55.2589 25.914 55.2589 25.914C55.2589 25.914 55.1264 24.5124 55.0697 23.8232C54.9645 22.5461 54.8519 20.1133 54.8519 20.1133C54.8519 20.1133 54.7309 17.5547 54.9949 15.9488C55.2402 14.457 55.2182 13.4786 56.0738 12.2301C56.6444 11.3975 57.0443 10.9006 57.9486 10.448C58.975 9.9343 59.6911 9.94568 60.866 10.0751C62.6048 10.2666 66.9996 12.2301 66.9996 12.2301L69.0908 13.4061C69.0908 13.4061 70.616 14.3523 71.3949 14.8785C72.1302 15.3752 72.8736 15.9021 73.6206 16.4553C74.7422 17.2859 76.995 19.112 76.995 19.112L78.4411 20.3463L80.5144 22.219L83.6368 25.2882L85.2867 27.0491C85.2867 27.0491 86.0905 27.9387 86.5902 28.5221C89.0231 31.3625 90.775 33.7592 92.2273 36.2606H129.315C129.98 35.1841 130.825 34.0797 131.818 32.9656C132.703 31.9722 134.8 29.9756 134.8 29.9756C134.8 29.9756 136.745 28.2719 137.805 27.4343C139.84 25.8257 144.387 22.8012 144.387 22.8012C144.387 22.8012 145.368 22.1902 145.863 21.892C146.46 21.532 147.667 20.8354 147.667 20.8354C147.667 20.8354 150.249 19.4094 151.54 18.7627C152.551 18.2558 154.554 17.3337 154.554 17.3337C154.554 17.3337 156.116 16.6541 156.881 16.3478C157.67 16.0319 158.447 15.7405 159.207 15.4759C160.763 14.9345 163.627 14.2083 163.627 14.2083C163.627 14.2083 164.26 14.0778 164.567 14.0235C165.154 13.9198 166.256 13.7948 166.256 13.7948C166.256 13.7948 167.941 13.7136 168.665 13.7948C172.038 14.1728 173.203 16.3197 173.176 19.4185C173.172 19.8713 173.092 20.8354 173.092 20.8354C173.092 20.8354 172.953 21.9265 172.848 22.5004C172.691 23.3585 172.241 25.1831 172.241 25.1831C172.241 25.1831 171.769 26.8926 171.498 27.7747C171.183 28.8031 170.488 30.91 170.488 30.91L169.282 34.4953C169.282 34.4953 168.888 35.6784 168.697 36.2644C168.413 37.1408 167.889 38.8559 167.889 38.8559C167.889 38.8559 167.7 39.5037 167.611 39.8232C167.441 40.4318 167.145 41.6129 167.145 41.6129L166.561 44.8085C166.419 45.6489 166.339 46.1202 166.196 46.9606L165.789 48.4668C165.789 48.4668 165.522 49.2726 165.369 49.6658C165.12 50.3088 164.525 51.5398 164.525 51.5398C164.525 51.5398 164.34 51.8935 164.215 52.1168C164.001 52.4987 163.64 53.0785 163.64 53.0785C163.64 53.0785 163.165 53.7957 162.911 54.1409C163.132 54.8121 163.495 56.1901 163.495 56.1901L163.713 57.1815C163.713 57.1815 163.828 57.7866 163.878 58.0918C163.917 58.3319 163.953 58.5733 163.985 58.816C164.039 59.2177 164.118 60.0302 164.118 60.0302C164.118 60.0302 164.179 60.8353 164.195 61.2418C164.208 61.5858 164.215 61.931 164.215 62.2785V87.2379C164.215 87.2379 164.365 106.181 114.776 106.181C65.1858 106.181 63.0196 87.2379 63.0196 87.2379C63.0196 87.2379 63.0196 84.4181 63.0196 82.6112C63.0196 81.5573 63.0196 80.966 63.0196 79.9121C63.0196 78.9621 62.8665 78.4168 63.0196 77.4793C63.1018 76.9759 63.2531 76.7155 63.3409 76.2129C63.6269 74.5759 63.0196 71.9703 63.0196 71.9703V62.2785C63.0196 60.8884 63.1302 59.5237 63.3409 58.1927C62.5776 57.5879 61.8621 56.928 61.2 56.2203C60.7088 55.6953 60.2553 55.1897 59.7865 54.6448C59.3175 53.9448 58.8525 53.1892 58.4389 52.4552C58.2538 52.1267 58.078 51.7927 57.9119 51.4535C57.7399 51.102 57.9966 51.6243 57.4273 50.3825C56.858 49.1408 56.6728 48.2188 56.6728 48.2188C56.6728 48.2188 56.3554 46.9835 56.2424 46.3508C56.1225 45.6795 55.9893 44.3074 55.9893 44.3074C55.9893 44.3074 55.9301 41.9783 56.0621 40.7889ZM106.172 71.9703C106.172 77.7177 101.495 82.3772 95.7262 82.3772C89.9573 82.3772 85.2807 77.7177 85.2807 71.9703C85.2807 66.2224 89.9573 61.5629 95.7262 61.5629C101.495 61.5629 106.172 66.2224 106.172 71.9703ZM142.731 71.9703C142.731 77.7177 138.054 82.3772 132.286 82.3772C126.517 82.3772 121.84 77.7177 121.84 71.9703C121.84 66.2224 126.517 61.5629 132.286 61.5629C138.054 61.5629 142.731 66.2224 142.731 71.9703Z" stroke="#3797A0" stroke-width="0.25"/>
</g>
<path d="M36.9251 122.421C37.3051 122.421 37.6651 122.451 38.0051 122.511C38.3451 122.571 38.6251 122.761 38.8451 123.081C39.0851 123.401 39.2051 123.951 39.2051 124.731C39.2051 125.491 39.0851 126.041 38.8451 126.381C38.6251 126.701 38.3351 126.891 37.9751 126.951C37.6351 127.011 37.2751 127.041 36.8951 127.041H32.7551V140.781C32.7551 141.221 32.7151 141.651 32.6351 142.071C32.5551 142.471 32.3251 142.801 31.9451 143.061C31.5851 143.321 30.9451 143.451 30.0251 143.451C29.1451 143.451 28.5151 143.321 28.1351 143.061C27.7551 142.781 27.5251 142.441 27.4451 142.041C27.3851 141.621 27.3551 141.191 27.3551 140.751V127.041H23.1851C22.8251 127.041 22.4651 127.011 22.1051 126.951C21.7651 126.871 21.4751 126.671 21.2351 126.351C21.0151 126.031 20.9051 125.481 20.9051 124.701C20.9051 123.941 21.0151 123.401 21.2351 123.081C21.4751 122.761 21.7751 122.571 22.1351 122.511C22.4951 122.451 22.8551 122.421 23.2151 122.421H36.9251ZM49.121 143.391C48.221 143.391 47.551 143.241 47.111 142.941C46.691 142.641 46.491 142.301 46.511 141.921H46.931C46.831 142.061 46.631 142.251 46.331 142.491C46.051 142.711 45.671 142.921 45.191 143.121C44.711 143.301 44.121 143.391 43.421 143.391C42.521 143.391 41.651 143.191 40.811 142.791C39.991 142.371 39.251 141.801 38.591 141.081C37.951 140.361 37.441 139.551 37.061 138.651C36.681 137.731 36.491 136.771 36.491 135.771C36.491 134.791 36.681 133.851 37.061 132.951C37.441 132.051 37.961 131.251 38.621 130.551C39.281 129.831 40.021 129.271 40.841 128.871C41.661 128.451 42.521 128.241 43.421 128.241C44.101 128.241 44.671 128.341 45.131 128.541C45.611 128.741 45.991 128.961 46.271 129.201C46.571 129.441 46.771 129.641 46.871 129.801H46.541C46.521 129.301 46.721 128.911 47.141 128.631C47.581 128.351 48.251 128.211 49.151 128.211C50.051 128.211 50.681 128.351 51.041 128.631C51.421 128.891 51.651 129.231 51.731 129.651C51.811 130.071 51.851 130.501 51.851 130.941V140.691C51.851 141.131 51.811 141.561 51.731 141.981C51.651 142.401 51.421 142.741 51.041 143.001C50.681 143.261 50.041 143.391 49.121 143.391ZM44.171 137.961C44.551 137.961 44.891 137.861 45.191 137.661C45.511 137.461 45.761 137.201 45.941 136.881C46.141 136.541 46.241 136.181 46.241 135.801C46.241 135.401 46.141 135.041 45.941 134.721C45.761 134.401 45.511 134.141 45.191 133.941C44.871 133.741 44.511 133.641 44.111 133.641C43.711 133.641 43.341 133.741 43.001 133.941C42.681 134.141 42.421 134.411 42.221 134.751C42.021 135.071 41.921 135.431 41.921 135.831C41.921 136.211 42.021 136.561 42.221 136.881C42.441 137.201 42.721 137.461 43.061 137.661C43.401 137.861 43.771 137.961 44.171 137.961ZM59.3102 143.721C58.7502 143.721 58.1202 143.651 57.4202 143.511C56.7402 143.391 56.0702 143.211 55.4102 142.971C54.7702 142.711 54.2402 142.411 53.8202 142.071C53.4002 141.731 53.1902 141.341 53.1902 140.901C53.1902 140.701 53.2302 140.481 53.3102 140.241C53.4102 139.981 53.5402 139.701 53.7002 139.401C53.8602 139.101 54.0602 138.781 54.3002 138.441C54.4402 138.241 54.6002 138.091 54.7802 137.991C54.9802 137.891 55.2102 137.841 55.4702 137.841C55.8302 137.841 56.1802 137.921 56.5202 138.081C56.8602 138.221 57.2002 138.391 57.5402 138.591C57.8802 138.771 58.2302 138.941 58.5902 139.101C58.9702 139.241 59.3702 139.311 59.7902 139.311C60.1702 139.311 60.4502 139.271 60.6302 139.191C60.8302 139.111 60.9302 138.991 60.9302 138.831C60.9302 138.671 60.8602 138.541 60.7202 138.441C60.6002 138.341 60.4202 138.261 60.1802 138.201C59.9602 138.121 59.7002 138.051 59.4002 137.991C59.1002 137.931 58.7802 137.861 58.4402 137.781C58.1002 137.701 57.7502 137.601 57.3902 137.481C56.9302 137.341 56.4802 137.161 56.0402 136.941C55.6002 136.701 55.2002 136.391 54.8402 136.011C54.5002 135.631 54.2202 135.171 54.0002 134.631C53.8002 134.091 53.7002 133.431 53.7002 132.651C53.7002 131.611 53.9402 130.741 54.4202 130.041C54.9002 129.341 55.6102 128.811 56.5502 128.451C57.4902 128.091 58.6502 127.911 60.0302 127.911C60.3702 127.911 60.7102 127.931 61.0502 127.971C61.3902 128.011 61.7302 128.071 62.0702 128.151C62.4302 128.231 62.7802 128.341 63.1202 128.481C63.4802 128.601 63.8402 128.741 64.2002 128.901C64.9402 129.221 65.3202 129.671 65.3402 130.251C65.3602 130.811 65.1502 131.401 64.7102 132.021C64.4702 132.401 64.2202 132.691 63.9602 132.891C63.7202 133.071 63.4702 133.161 63.2102 133.161C62.8902 133.161 62.5402 133.071 62.1602 132.891C61.7802 132.711 61.3802 132.531 60.9602 132.351C60.5402 132.171 60.1202 132.081 59.7002 132.081C59.4602 132.081 59.2502 132.111 59.0702 132.171C58.9102 132.211 58.7902 132.281 58.7102 132.381C58.6302 132.461 58.5902 132.561 58.5902 132.681C58.5902 132.901 58.6602 133.081 58.8002 133.221C58.9602 133.341 59.1602 133.441 59.4002 133.521C59.6602 133.601 59.9502 133.671 60.2702 133.731C60.6102 133.791 60.9702 133.851 61.3502 133.911C61.8702 133.991 62.4002 134.121 62.9402 134.301C63.5002 134.461 64.0102 134.701 64.4702 135.021C64.9302 135.341 65.3002 135.781 65.5802 136.341C65.8602 136.901 66.0002 137.631 66.0002 138.531C66.0002 140.231 65.4302 141.521 64.2902 142.401C63.1702 143.281 61.5102 143.721 59.3102 143.721ZM80.3412 138.501C81.0812 139.161 81.4712 139.791 81.5112 140.391C81.5712 140.971 81.2412 141.641 80.5212 142.401C79.9812 142.961 79.5112 143.321 79.1112 143.481C78.7312 143.661 78.3512 143.661 77.9712 143.481C77.5912 143.321 77.1412 143.011 76.6212 142.551L72.9312 139.101V140.751C72.9312 141.191 72.8912 141.621 72.8112 142.041C72.7312 142.461 72.5012 142.801 72.1212 143.061C71.7612 143.321 71.1212 143.451 70.2012 143.451C69.3012 143.451 68.6612 143.321 68.2812 143.061C67.9012 142.781 67.6712 142.431 67.5912 142.011C67.5312 141.591 67.5012 141.161 67.5012 140.721V124.011C67.5012 123.551 67.5412 123.121 67.6212 122.721C67.7012 122.301 67.9312 121.961 68.3112 121.701C68.6912 121.421 69.3312 121.281 70.2312 121.281C71.1312 121.281 71.7612 121.421 72.1212 121.701C72.5012 121.961 72.7312 122.301 72.8112 122.721C72.8912 123.141 72.9312 123.581 72.9312 124.041V132.321L75.4812 129.831C75.9612 129.371 76.4112 129.061 76.8312 128.901C77.2512 128.721 77.6612 128.711 78.0612 128.871C78.4812 129.011 78.9212 129.331 79.3812 129.831C80.1612 130.671 80.5312 131.351 80.4912 131.871C80.4712 132.391 80.1012 133.011 79.3812 133.731L76.9512 135.861L80.3412 138.501ZM89.2945 143.721C88.3745 143.721 87.4445 143.541 86.5045 143.181C85.5645 142.801 84.6945 142.271 83.8945 141.591C83.1145 140.891 82.4845 140.061 82.0045 139.101C81.5445 138.121 81.3145 137.031 81.3145 135.831C81.3145 134.731 81.5245 133.701 81.9445 132.741C82.3645 131.781 82.9345 130.941 83.6545 130.221C84.3945 129.481 85.2345 128.901 86.1745 128.481C87.1345 128.061 88.1545 127.851 89.2345 127.851C90.7145 127.851 92.0545 128.211 93.2545 128.931C94.4545 129.631 95.4145 130.581 96.1345 131.781C96.8545 132.981 97.2145 134.321 97.2145 135.801C97.2145 137.061 96.9745 138.181 96.4945 139.161C96.0145 140.141 95.3845 140.971 94.6045 141.651C93.8245 142.331 92.9645 142.841 92.0245 143.181C91.1045 143.541 90.1945 143.721 89.2945 143.721ZM89.2345 138.231C89.5345 138.231 89.8745 138.161 90.2545 138.021C90.6545 137.861 90.9945 137.601 91.2745 137.241C91.5745 136.881 91.7245 136.391 91.7245 135.771C91.7245 135.271 91.6145 134.841 91.3945 134.481C91.1945 134.121 90.9045 133.841 90.5245 133.641C90.1445 133.441 89.7045 133.341 89.2045 133.341C88.7645 133.341 88.3645 133.451 88.0045 133.671C87.6445 133.871 87.3545 134.161 87.1345 134.541C86.9145 134.901 86.8045 135.321 86.8045 135.801C86.8045 136.401 86.9445 136.881 87.2245 137.241C87.5045 137.601 87.8345 137.861 88.2145 138.021C88.5945 138.161 88.9345 138.231 89.2345 138.231ZM121.154 122.421C121.534 122.421 121.894 122.451 122.234 122.511C122.574 122.571 122.854 122.761 123.074 123.081C123.314 123.401 123.434 123.951 123.434 124.731C123.434 125.491 123.314 126.041 123.074 126.381C122.854 126.701 122.564 126.891 122.204 126.951C121.864 127.011 121.504 127.041 121.124 127.041H116.984V140.781C116.984 141.221 116.944 141.651 116.864 142.071C116.784 142.471 116.554 142.801 116.174 143.061C115.814 143.321 115.174 143.451 114.254 143.451C113.374 143.451 112.744 143.321 112.364 143.061C111.984 142.781 111.754 142.441 111.674 142.041C111.614 141.621 111.584 141.191 111.584 140.751V127.041H107.414C107.054 127.041 106.694 127.011 106.334 126.951C105.994 126.871 105.704 126.671 105.464 126.351C105.244 126.031 105.134 125.481 105.134 124.701C105.134 123.941 105.244 123.401 105.464 123.081C105.704 122.761 106.004 122.571 106.364 122.511C106.724 122.451 107.084 122.421 107.444 122.421H121.154ZM123.87 143.451C122.97 143.451 122.33 143.321 121.95 143.061C121.57 142.781 121.34 142.431 121.26 142.011C121.2 141.571 121.17 141.131 121.17 140.691V130.911C121.17 130.451 121.21 130.021 121.29 129.621C121.37 129.201 121.6 128.861 121.98 128.601C122.36 128.341 123 128.211 123.9 128.211C124.78 128.211 125.4 128.331 125.76 128.571C126.14 128.811 126.37 129.081 126.45 129.381C126.53 129.661 126.57 129.881 126.57 130.041L126.09 129.861C126.09 129.861 126.17 129.771 126.33 129.591C126.49 129.411 126.72 129.201 127.02 128.961C127.34 128.721 127.71 128.511 128.13 128.331C128.57 128.151 129.06 128.061 129.6 128.061C129.78 128.061 130 128.081 130.26 128.121C130.54 128.141 130.83 128.191 131.13 128.271C131.45 128.351 131.74 128.471 132 128.631C132.28 128.791 132.5 129.001 132.66 129.261C132.84 129.521 132.93 129.841 132.93 130.221C132.93 131.221 132.71 132.071 132.27 132.771C131.85 133.471 131.29 133.821 130.59 133.821C130.21 133.821 129.94 133.801 129.78 133.761C129.62 133.701 129.5 133.651 129.42 133.611C129.36 133.551 129.28 133.501 129.18 133.461C129.1 133.401 128.94 133.371 128.7 133.371C128.4 133.371 128.12 133.411 127.86 133.491C127.62 133.551 127.4 133.651 127.2 133.791C127.02 133.931 126.88 134.101 126.78 134.301C126.68 134.481 126.63 134.681 126.63 134.901V140.751C126.63 141.191 126.59 141.621 126.51 142.041C126.43 142.461 126.2 142.801 125.82 143.061C125.44 143.321 124.79 143.451 123.87 143.451ZM145.391 143.391C144.491 143.391 143.821 143.241 143.381 142.941C142.961 142.641 142.761 142.301 142.781 141.921H143.201C143.101 142.061 142.901 142.251 142.601 142.491C142.321 142.711 141.941 142.921 141.461 143.121C140.981 143.301 140.391 143.391 139.691 143.391C138.791 143.391 137.921 143.191 137.081 142.791C136.261 142.371 135.521 141.801 134.861 141.081C134.221 140.361 133.711 139.551 133.331 138.651C132.951 137.731 132.761 136.771 132.761 135.771C132.761 134.791 132.951 133.851 133.331 132.951C133.711 132.051 134.231 131.251 134.891 130.551C135.551 129.831 136.291 129.271 137.111 128.871C137.931 128.451 138.791 128.241 139.691 128.241C140.371 128.241 140.941 128.341 141.401 128.541C141.881 128.741 142.261 128.961 142.541 129.201C142.841 129.441 143.041 129.641 143.141 129.801H142.811C142.791 129.301 142.991 128.911 143.411 128.631C143.851 128.351 144.521 128.211 145.421 128.211C146.321 128.211 146.951 128.351 147.311 128.631C147.691 128.891 147.921 129.231 148.001 129.651C148.081 130.071 148.121 130.501 148.121 130.941V140.691C148.121 141.131 148.081 141.561 148.001 141.981C147.921 142.401 147.691 142.741 147.311 143.001C146.951 143.261 146.311 143.391 145.391 143.391ZM140.441 137.961C140.821 137.961 141.161 137.861 141.461 137.661C141.781 137.461 142.031 137.201 142.211 136.881C142.411 136.541 142.511 136.181 142.511 135.801C142.511 135.401 142.411 135.041 142.211 134.721C142.031 134.401 141.781 134.141 141.461 133.941C141.141 133.741 140.781 133.641 140.381 133.641C139.981 133.641 139.611 133.741 139.271 133.941C138.951 134.141 138.691 134.411 138.491 134.751C138.291 135.071 138.191 135.431 138.191 135.831C138.191 136.211 138.291 136.561 138.491 136.881C138.711 137.201 138.991 137.461 139.331 137.661C139.671 137.861 140.041 137.961 140.441 137.961ZM157.62 143.601C156.8 143.601 155.93 143.441 155.01 143.121C154.11 142.781 153.26 142.291 152.46 141.651C151.66 140.991 151.01 140.171 150.51 139.191C150.01 138.211 149.76 137.071 149.76 135.771C149.76 134.491 150.01 133.371 150.51 132.411C151.01 131.431 151.65 130.621 152.43 129.981C153.23 129.341 154.08 128.861 154.98 128.541C155.9 128.201 156.76 128.031 157.56 128.031C158.32 128.031 158.98 128.111 159.54 128.271C160.1 128.431 160.56 128.611 160.92 128.811C161.28 128.991 161.54 129.131 161.7 129.231C162.1 129.471 162.47 129.751 162.81 130.071C163.17 130.371 163.35 130.781 163.35 131.301C163.35 131.561 163.3 131.831 163.2 132.111C163.1 132.371 162.94 132.671 162.72 133.011C162 134.111 161.28 134.661 160.56 134.661C160.24 134.661 159.96 134.611 159.72 134.511C159.48 134.391 159.26 134.261 159.06 134.121C158.86 133.981 158.64 133.861 158.4 133.761C158.18 133.641 157.9 133.581 157.56 133.581C157.16 133.581 156.79 133.681 156.45 133.881C156.11 134.081 155.84 134.351 155.64 134.691C155.44 135.011 155.34 135.381 155.34 135.801C155.34 136.221 155.44 136.601 155.64 136.941C155.84 137.281 156.1 137.551 156.42 137.751C156.76 137.951 157.12 138.051 157.5 138.051C157.78 138.051 158.01 138.021 158.19 137.961C158.39 137.901 158.54 137.841 158.64 137.781C158.74 137.701 158.8 137.661 158.82 137.661C159.1 137.501 159.36 137.351 159.6 137.211C159.86 137.071 160.12 137.001 160.38 137.001C160.72 137.001 161.07 137.131 161.43 137.391C161.79 137.631 162.19 138.031 162.63 138.591C163.05 139.111 163.28 139.601 163.32 140.061C163.38 140.501 163.27 140.921 162.99 141.321C162.71 141.701 162.28 142.071 161.7 142.431C161.64 142.471 161.43 142.591 161.07 142.791C160.73 142.971 160.27 143.151 159.69 143.331C159.11 143.511 158.42 143.601 157.62 143.601ZM177.988 138.501C178.728 139.161 179.118 139.791 179.158 140.391C179.218 140.971 178.888 141.641 178.168 142.401C177.628 142.961 177.158 143.321 176.758 143.481C176.378 143.661 175.998 143.661 175.618 143.481C175.238 143.321 174.788 143.011 174.268 142.551L170.578 139.101V140.751C170.578 141.191 170.538 141.621 170.458 142.041C170.378 142.461 170.148 142.801 169.768 143.061C169.408 143.321 168.768 143.451 167.848 143.451C166.948 143.451 166.308 143.321 165.928 143.061C165.548 142.781 165.318 142.431 165.238 142.011C165.178 141.591 165.148 141.161 165.148 140.721V124.011C165.148 123.551 165.188 123.121 165.268 122.721C165.348 122.301 165.578 121.961 165.958 121.701C166.338 121.421 166.978 121.281 167.878 121.281C168.778 121.281 169.408 121.421 169.768 121.701C170.148 121.961 170.378 122.301 170.458 122.721C170.538 123.141 170.578 123.581 170.578 124.041V132.321L173.128 129.831C173.608 129.371 174.058 129.061 174.478 128.901C174.898 128.721 175.308 128.711 175.708 128.871C176.128 129.011 176.568 129.331 177.028 129.831C177.808 130.671 178.178 131.351 178.138 131.871C178.118 132.391 177.748 133.011 177.028 133.731L174.598 135.861L177.988 138.501ZM187.181 143.781C185.681 143.781 184.411 143.541 183.371 143.061C182.331 142.561 181.491 141.921 180.851 141.141C180.211 140.341 179.741 139.481 179.441 138.561C179.141 137.641 178.991 136.751 178.991 135.891C178.991 134.311 179.341 132.921 180.041 131.721C180.741 130.521 181.711 129.581 182.951 128.901C184.191 128.221 185.611 127.881 187.211 127.881C188.451 127.881 189.511 128.081 190.391 128.481C191.271 128.881 191.981 129.391 192.521 130.011C193.081 130.631 193.491 131.291 193.751 131.991C194.011 132.691 194.141 133.341 194.141 133.941C194.141 135.081 193.861 135.951 193.301 136.551C192.741 137.151 192.021 137.451 191.141 137.451H184.751C184.831 137.771 184.991 138.051 185.231 138.291C185.491 138.511 185.811 138.691 186.191 138.831C186.571 138.951 186.981 139.011 187.421 139.011C187.861 139.011 188.251 138.991 188.591 138.951C188.931 138.891 189.221 138.821 189.461 138.741C189.721 138.661 189.951 138.581 190.151 138.501C190.371 138.421 190.561 138.361 190.721 138.321C190.901 138.261 191.071 138.231 191.231 138.231C191.591 138.231 191.921 138.351 192.221 138.591C192.521 138.831 192.791 139.191 193.031 139.671C193.171 139.931 193.271 140.181 193.331 140.421C193.391 140.641 193.421 140.851 193.421 141.051C193.421 141.651 193.171 142.151 192.671 142.551C192.191 142.951 191.491 143.251 190.571 143.451C189.651 143.671 188.521 143.781 187.181 143.781ZM184.751 134.631H188.111C188.391 134.631 188.591 134.571 188.711 134.451C188.851 134.331 188.921 134.151 188.921 133.911C188.921 133.651 188.841 133.431 188.681 133.251C188.541 133.071 188.341 132.941 188.081 132.861C187.821 132.761 187.511 132.711 187.151 132.711C186.671 132.711 186.251 132.811 185.891 133.011C185.531 133.191 185.251 133.431 185.051 133.731C184.871 134.011 184.771 134.311 184.751 134.631ZM198.196 143.451C197.296 143.451 196.656 143.321 196.276 143.061C195.896 142.781 195.666 142.431 195.586 142.011C195.526 141.571 195.496 141.131 195.496 140.691V130.911C195.496 130.451 195.536 130.021 195.616 129.621C195.696 129.201 195.926 128.861 196.306 128.601C196.686 128.341 197.326 128.211 198.226 128.211C199.106 128.211 199.726 128.331 200.086 128.571C200.466 128.811 200.696 129.081 200.776 129.381C200.856 129.661 200.896 129.881 200.896 130.041L200.416 129.861C200.416 129.861 200.496 129.771 200.656 129.591C200.816 129.411 201.046 129.201 201.346 128.961C201.666 128.721 202.036 128.511 202.456 128.331C202.896 128.151 203.386 128.061 203.926 128.061C204.106 128.061 204.326 128.081 204.586 128.121C204.866 128.141 205.156 128.191 205.456 128.271C205.776 128.351 206.066 128.471 206.326 128.631C206.606 128.791 206.826 129.001 206.986 129.261C207.166 129.521 207.256 129.841 207.256 130.221C207.256 131.221 207.036 132.071 206.596 132.771C206.176 133.471 205.616 133.821 204.916 133.821C204.536 133.821 204.266 133.801 204.106 133.761C203.946 133.701 203.826 133.651 203.746 133.611C203.686 133.551 203.606 133.501 203.506 133.461C203.426 133.401 203.266 133.371 203.026 133.371C202.726 133.371 202.446 133.411 202.186 133.491C201.946 133.551 201.726 133.651 201.526 133.791C201.346 133.931 201.206 134.101 201.106 134.301C201.006 134.481 200.956 134.681 200.956 134.901V140.751C200.956 141.191 200.916 141.621 200.836 142.041C200.756 142.461 200.526 142.801 200.146 143.061C199.766 143.321 199.116 143.451 198.196 143.451Z" fill="#49C9D5"/>
<defs>
<filter id="filter0_di_3014_10" x="51.6992" y="6.875" width="126.602" height="104.431" filterUnits="userSpaceOnUse" color-interpolation-filters="sRGB">
<feFlood flood-opacity="0" result="BackgroundImageFix"/>
<feColorMatrix in="SourceAlpha" type="matrix" values="0 0 0 0 0 0 0 0 0 0 0 0 0 0 0 0 0 0 127 0" result="hardAlpha"/>
<feOffset dx="1" dy="1"/>
<feGaussianBlur stdDeviation="2"/>
<feComposite in2="hardAlpha" operator="out"/>
<feColorMatrix type="matrix" values="0 0 0 0 0 0 0 0 0 0 0 0 0 0 0 0 0 0 0.11 0"/>
<feBlend mode="normal" in2="BackgroundImageFix" result="effect1_dropShadow_3014_10"/>
<feBlend mode="normal" in="SourceGraphic" in2="effect1_dropShadow_3014_10" result="shape"/>
<feColorMatrix in="SourceAlpha" type="matrix" values="0 0 0 0 0 0 0 0 0 0 0 0 0 0 0 0 0 0 127 0" result="hardAlpha"/>
<feOffset/>
<feGaussianBlur stdDeviation="5.1"/>
<feComposite in2="hardAlpha" operator="arithmetic" k2="-1" k3="1"/>
<feColorMatrix type="matrix" values="0 0 0 0 0 0 0 0 0 0 0 0 0 0 0 0 0 0 0.53 0"/>
<feBlend mode="normal" in2="shape" result="effect2_innerShadow_3014_10"/>
</filter>
<radialGradient id="paint0_radial_3014_10" cx="0" cy="0" r="1" gradientUnits="userSpaceOnUse" gradientTransform="translate(114 60.9328) rotate(90) scale(63.9556 78.6982)">
<stop stop-color="#D9D9D9" stop-opacity="0"/>
<stop offset="1" stop-color="#1A464B" stop-opacity="0.3"/>
</radialGradient>
<radialGradient id="paint1_radial_3014_10" cx="0" cy="0" r="1" gradientUnits="userSpaceOnUse" gradientTransform="translate(114 60.9328) rotate(90) scale(63.9556 78.6982)">
<stop stop-color="#D9D9D9" stop-opacity="0"/>
<stop offset="1" stop-color="#1A464B" stop-opacity="0.3"/>
</radialGradient>
<radialGradient id="paint2_radial_3014_10" cx="0" cy="0" r="1" gradientUnits="userSpaceOnUse" gradientTransform="translate(114 60.9328) rotate(90) scale(63.9556 78.6982)">
<stop stop-color="#D9D9D9" stop-opacity="0"/>
<stop offset="1" stop-color="#1A464B" stop-opacity="0.3"/>
</radialGradient>
</defs>
</svg>
